<svg width="18" height="17" viewBox="0 0 18 17" fill="none" xmlns="http://www.w3.org/2000/svg">
<g clip-path="url(#clip0_1_209)">
<path d="M8.99999 7.94118C9.13763 7.94118 9.26999 7.99412 9.37587 8.09471L10.0588 8.77765V0H7.94116V8.78294L8.6241 8.1C8.72999 7.99412 8.86234 7.94647 8.99999 7.94647V7.94118Z" fill="#171568"/>
<path d="M18 5.29419H11.1176V10.0589C11.1176 10.2707 10.9906 10.4665 10.7894 10.546C10.5988 10.6254 10.3659 10.583 10.2124 10.4295L9 9.21713L7.78765 10.4295C7.63412 10.583 7.40647 10.6254 7.21059 10.546C7.01471 10.4665 6.88235 10.2707 6.88235 10.0589V5.29419H0V16.9412H18V5.29419ZM6.88235 14.8236C6.88235 15.1148 6.64412 15.353 6.35294 15.353H2.11765C1.82647 15.353 1.58824 15.1148 1.58824 14.8236V12.706C1.58824 12.4148 1.82647 12.1765 2.11765 12.1765H6.35294C6.64412 12.1765 6.88235 12.4148 6.88235 12.706V14.8236Z" fill="#171568"/>
<path d="M5.82357 13.2354H2.64709V14.2942H5.82357V13.2354Z" fill="#171568"/>
<path d="M15.8241 0.291176C15.7341 0.111176 15.5489 0 15.353 0H11.1177V4.23529H17.7989L15.8294 0.291176H15.8241Z" fill="#171568"/>
<path d="M6.8824 0H3.17652C2.99652 0 2.82181 0.0952941 2.72652 0.248824L0.238281 4.23529H6.8824V0Z" fill="#171568"/>
</g>
<defs>
<clipPath id="clip0_1_209">
<rect width="18" height="16.9412" fill="white"/>
</clipPath>
</defs>
</svg>
