<svg width="15" height="17" viewBox="0 0 15 17" fill="none" xmlns="http://www.w3.org/2000/svg">
<g clip-path="url(#clip0_1_201)">
<path d="M7.2859 17.0001C7.22515 17.0001 7.16422 16.9927 7.10508 16.9781C6.61979 16.8573 4.91497 16.3388 3.35052 14.7352C2.36932 13.7296 1.59034 12.4676 1.03494 10.9842C0.34852 9.15065 0.000366211 6.96522 0.000366211 4.48869V2.81552C0.000366211 2.35353 0.333602 1.96949 0.759044 1.94123C2.16874 1.84771 3.5308 1.56342 4.80766 1.09637C5.75309 0.750705 6.46395 0.369775 6.89389 0.111016C7.13941 -0.0366798 7.43275 -0.0366798 7.67827 0.111016C8.10803 0.369581 8.81889 0.750511 9.7645 1.09637C11.0414 1.56342 12.4036 1.84751 13.8131 1.94123C14.2386 1.96949 14.5718 2.35353 14.5718 2.81552V4.48869C14.5718 6.96522 14.2236 9.15065 13.537 10.9842C12.9816 12.4676 12.2027 13.7296 11.2215 14.7352C9.6572 16.3384 7.95201 16.8573 7.46672 16.9781C7.40758 16.9929 7.34665 17.0001 7.2859 17.0001Z" fill="#171568"/>
<path d="M5.58571 11.9141L3.49607 9.6488C3.30177 9.43816 3.30177 9.09659 3.49607 8.88596L4.05218 8.2831C4.24647 8.07247 4.56156 8.07247 4.75585 8.2831L5.93746 9.56404L9.81694 5.35841C10.0112 5.14778 10.3263 5.14778 10.5206 5.35841L11.0767 5.96128C11.271 6.17191 11.271 6.51348 11.0767 6.72411L6.28939 11.9139C6.09509 12.1245 5.78001 12.1245 5.58571 11.9139V11.9141Z" fill="white"/>
</g>
<defs>
<clipPath id="clip0_1_201">
<rect width="14.5714" height="17" fill="white"/>
</clipPath>
</defs>
</svg>
